<svg width="337" height="280" viewBox="0 0 337 280" fill="none" xmlns="http://www.w3.org/2000/svg">
<path d="M135.174 12C137.281 17.0133 139.987 22.2933 145.214 24.6667C153.24 29.0133 163.84 25.5333 168.36 17.7467C172.72 25.2267 182.68 28.8267 190.654 25.0667C196.254 22.8533 199.387 17.36 201.521 12.04C202.254 16.9733 202.96 22.28 200.654 26.9333C197.174 35 187.547 39.68 179.067 37.3467C174.707 36.4533 171.307 33.4533 168.36 30.3467C165.134 33.8133 161.214 36.96 156.387 37.6267C147.854 39.3333 138.68 34.1467 135.68 26.0133C133.747 21.56 134.521 16.6267 135.174 12Z" fill="white"/>
<path d="M153.041 48.6C159.027 45.4533 164.294 41.0667 168.361 35.64C172.401 41.0533 177.667 45.4533 183.667 48.6C183.441 81.7867 184.441 115.013 182.734 148.187C181.734 172.853 180.761 197.507 179.747 222.173C209.721 200.227 229.534 165.133 232.481 128.08C235.214 98.6 227.134 68.56 210.827 43.9467C242.347 70.7867 257.774 114.787 249.987 155.44C243.761 190.787 220.561 222.573 188.721 239.173C204.947 245.093 222.241 247.28 239.467 247.173C219.854 252.867 198.947 254.613 178.88 250.28C178.307 257.573 171.761 262.267 168.361 268.307C164.947 262.267 158.401 257.573 157.841 250.28C137.774 254.613 116.854 252.867 97.2538 247.173C114.32 247.213 131.52 245.24 147.6 239.227C134.84 231.747 122.814 222.8 113.294 211.4C94.5871 189.613 84.2807 160.84 84.8273 132.133C85.1607 98.64 100.507 65.72 125.92 43.9067C112.587 64.16 104.547 87.9333 103.827 112.227C102.334 149.893 118.094 187.88 146.121 213.16C149.574 216.347 153.294 219.24 156.987 222.187C155.934 197.533 154.987 172.88 153.987 148.227C152.267 115.04 153.281 81.8133 153.041 48.6Z" fill="white"/>
<path d="M47.814 96.96C59.9207 69.6667 85.0005 48.6667 113.987 41.52C96.6805 54.76 82.5472 72.1867 73.7072 92.1467C56.2806 130.413 58.9471 177.053 80.9471 212.92C83.2671 216.813 85.894 220.52 88.494 224.253C70.4407 213.76 55.7873 197.507 47.4673 178.347C36.094 152.787 36.1473 122.413 47.814 96.96Z" fill="white"/>
<path d="M222.734 41.52C242.187 46.4267 260.094 57.3334 273.24 72.52C290.614 92.3467 299.574 119.253 297.454 145.533C295.281 177.76 276.294 208.213 248.24 224.24C271.187 193.827 279.934 153.253 271.067 116.16C264.401 86.5867 246.854 59.8 222.734 41.52Z" fill="white"/>
</svg>
